<svg id="Capa_1" enable-background="new 0 0 512 512" height="512" viewBox="0 0 512 512" width="512" xmlns="http://www.w3.org/2000/svg"><g><g><path d="m38.442 379.747h435.117c17.526-33.751 27.441-72.089 27.441-112.747 0-135.31-109.69-245-245-245s-245 109.69-245 245c0 40.658 9.915 78.997 27.442 112.747z" fill="#3691bb"/></g><g><g><path d="m450.074 416.513-56.564-80.322h-275.02l-56.565 80.322-.003.002c44.799 58.07 115.063 95.485 194.078 95.485s149.279-37.415 194.077-95.484z" fill="#e4f1f2"/></g><g><g><path d="" fill="#fff"/></g><g><path d="m157.568 336.191h-39.078l-56.565 80.322-.003.002c44.799 58.07 115.063 95.485 194.078 95.485-58.83-41.506-93.961-106.699-98.432-175.809z" fill="#b3d1e1"/></g></g><g><path d="m62.069 416.513c27.248 0 53.445-9.88 74.372-27.33 32.831-27.377 74.839-43.321 119.559-43.321 44.72 0 86.728 15.944 119.559 43.321 20.927 17.45 47.124 27.33 74.372 27.33h.143c8.867-11.491 16.743-23.785 23.484-36.766l-87.554-236.789h-260.008l-87.554 236.79c6.741 12.981 14.617 25.275 23.484 36.766h.143z" fill="#012d4e"/></g><g><path d="m38.442 379.748c6.741 12.981 14.617 25.275 23.484 36.766h.143c27.248 0 53.445-9.88 74.372-27.33 8.144-6.792 16.855-12.877 26.03-18.193-8.052-36.827-7.261-75.836 3.541-113.781l32.526-114.251h-72.542z" fill="#012338"/></g><g><path d="m385.013 4.767c-24.194 13.968-50.773 55.464-36.805 79.658s63.194 21.923 87.388 7.955 14.193-34.345.225-58.539c-13.967-24.193-26.614-43.042-50.808-29.074z" fill="#012d4e"/></g><g><path d="m420.277 98.743c-8.029-17.816-18.565-35.111-31.097-50.521-7.702-9.472-15.942-18.022-24.626-25.617-15.675 18.588-26.294 44.591-16.346 61.821 11.43 19.795 46.457 21.867 72.069 14.317z" fill="#012338"/></g><g><path d="m378.069 76.17c14.546 3.898 35.026.334 45.027-5.441.01-.006.019-.011.029-.017 1.297-.751 1.874-2.319 1.404-3.742-2.081-6.294-8.098-16.714-10.358-20.629s-8.276-14.336-12.687-19.285c-.997-1.119-2.643-1.403-3.943-.655-.009.005-.019.011-.028.016-8.009 4.624-17.492 15.288-23.061 25.933-5.709 10.912-5.56 17.9-4.593 19.574.484.838 2.821 2.802 8.21 4.246z" fill="#00141e"/></g><g><path d="m126.987 4.767c24.194 13.968 50.773 55.464 36.805 79.658s-63.194 21.923-87.388 7.955-14.194-34.345-.226-58.538 26.615-43.043 50.809-29.075z" fill="#012d4e"/></g><g><path d="m122.819 48.222c-12.531 15.411-23.067 32.706-31.097 50.521 25.612 7.55 60.639 5.478 72.068-14.318 9.948-17.23-.671-43.233-16.346-61.821-8.683 7.595-16.922 16.145-24.625 25.618z" fill="#012338"/></g><g><path d="m133.931 76.17c-14.546 3.898-35.026.334-45.027-5.441-.01-.006-.019-.011-.029-.017-1.297-.751-1.874-2.319-1.404-3.742 2.081-6.294 8.098-16.714 10.357-20.629 2.26-3.915 8.276-14.336 12.687-19.285.997-1.119 2.643-1.403 3.942-.655.009.005.019.011.028.016 8.009 4.624 17.492 15.288 23.061 25.933 5.709 10.912 5.56 17.9 4.593 19.574-.482.838-2.819 2.802-8.208 4.246z" fill="#00141e"/></g><g><path d="m256 0c-98.095 0-161.756 104.751-161.756 172.462s68.87 113.432 161.756 113.432 161.756-45.72 161.756-113.431-63.661-172.463-161.756-172.463z" fill="#f8feff"/></g><g><path d="m292.287 283.401c-220.127-45.712-133.476-244.048-133.417-244.183-40.86 36.685-64.626 91.876-64.626 133.245 0 67.712 68.869 113.431 161.756 113.431 12.573 0 24.701-.845 36.283-2.461z" fill="#e4f1f2"/></g><g><ellipse cx="182.18" cy="153.515" fill="#013f69" rx="63.385" ry="40.737" transform="matrix(.506 -.862 .862 .506 -42.433 232.919)"/></g><g><path d="m150.094 208.178c5.123 3.007 10.995 4.141 17.185 3.65-15.584-22.474-22.498-47.169-24.565-70.68-12.988 27.847-10.269 56.671 7.38 67.03z" fill="#012d4e"/></g><g><ellipse cx="329.82" cy="153.515" fill="#013f69" rx="40.737" ry="63.385" transform="matrix(.862 -.506 .506 .862 -32.331 188.078)"/></g><g><circle cx="192.491" cy="135.947" fill="#00141e" r="15"/></g><g><circle cx="192.491" cy="125.947" fill="#fff" r="7.5"/></g><g><circle cx="319.509" cy="135.947" fill="#00141e" r="15"/></g><g><circle cx="319.509" cy="125.947" fill="#fff" r="7.5"/></g><g><ellipse cx="256" cy="283.401" fill="#b3d1e1" rx="36.287" ry="28.368"/></g><g><path d="m314.509 230.449c0-42.86-26.195-97.491-58.509-97.491s-58.509 54.631-58.509 97.491 26.195 57.717 58.509 57.717 58.509-14.857 58.509-57.717z" fill="#e4f1f2"/></g><g><path d="m233.779 230.449c0-34.458 16.934-76.518 40.365-91.686-5.713-3.698-11.81-5.805-18.144-5.805-32.313 0-58.509 54.631-58.509 97.491s26.195 57.718 58.509 57.718c6.335 0 12.43-.581 18.144-1.823-23.429-5.09-40.365-21.438-40.365-55.895z" fill="#b3d1e1"/></g><g><path d="m288.19 223.084c0 17.778-14.412 32.19-32.19 32.19s-32.19-14.412-32.19-32.19 64.38-17.779 64.38 0z" fill="#013f69"/></g><g><path d="m247.628 210.562c0-.138.015-.268.023-.402-12.877 1.282-23.841 5.587-23.841 12.923 0 17.778 14.412 32.19 32.19 32.19 4.605 0 8.981-.974 12.943-2.716-12.426-6.392-21.315-23.282-21.315-41.995z" fill="#012d4e"/></g></g></g></svg>