<svg id="Capa_1" enable-background="new 0 0 512 512" height="512" viewBox="0 0 512 512" width="512" xmlns="http://www.w3.org/2000/svg"><g><g><path d="m456.969 407.139c27.744-39.712 44.031-88.02 44.031-140.139 0-135.31-109.69-245-245-245s-245 109.69-245 245c0 52.119 16.287 100.427 44.031 140.139z" fill="#3691bb"/></g><g><circle cx="256" cy="222" fill="#6caac9" r="180"/></g><g><path d="m289.738 241.28c-4.768.467-8.541 4.24-9.008 9.008-1.334 13.622 3.208 27.71 13.642 38.144s24.521 14.976 38.144 13.642c4.768-.467 8.541-4.24 9.008-9.008 1.334-13.622-3.208-27.709-13.642-38.144-10.435-10.434-24.522-14.976-38.144-13.642z" fill="#533022"/></g><g><path d="m256 74.787c-76.234 0-104.009 54.809-104.009 54.809v17.623h208.018v-17.623s-27.775-54.809-104.009-54.809z" fill="#7d402d"/></g><g><path d="m429.517 352.438c-22.713-20.055-117.884-36.418-125.915-37.77h-.496c0-.031.003-.062.003-.093h-94.217v.01h-.062c-2.584.428-102.995 17.179-126.408 37.852-8.351 7.373-18.17 29.339-27.391 54.702 44.284 63.388 117.778 104.861 200.969 104.861 83.166 0 156.64-41.447 200.929-104.803-.008-.02-.014-.039-.021-.058-9.221-25.363-19.04-47.328-27.391-54.701z" fill="#c92e43"/></g><g><path d="m398.319 466.431c-193.38-.006-202.015-149.609-202.015-149.611-28.161 5.261-95.292 19.202-113.882 35.617-8.351 7.373-18.17 29.339-27.391 54.702 44.284 63.388 117.778 104.861 200.969 104.861 53.077 0 102.204-16.885 142.319-45.569z" fill="#962437"/></g><g><path d="m256 512c2.509 0 5.009-.04 7.5-.115v-197.31h-15v197.31c2.491.075 4.991.115 7.5.115z" fill="#962437"/></g><g><path d="m248.5 511.885c2.491.075 4.991.115 7.5.115 2.51 0 5.008-.05 7.5-.125v-81.712c-5.426-3.801-10.412-7.787-15-11.894z" fill="#7f172d"/></g><g><path d="m303.602 220.734h-94.772v93.934s19.021 20 47.17 20 47.602-20 47.602-20z" fill="#eabe8d"/></g><g><path d="m331.058 159.567s10.385-25.285 28.897-19.415-.448 60.664-36.573 64.116z" fill="#f3d6ac"/></g><g><path d="m180.942 159.567s-10.385-25.285-28.897-19.415.448 60.664 36.573 64.116z" fill="#eabe8d"/></g><g><path d="m343.597 146.754c0 64.505-39.219 140.155-87.597 140.155s-87.597-75.651-87.597-140.155 39.218-110.884 87.597-110.884 87.597 46.38 87.597 110.884z" fill="#f8e6cc"/></g><g><path d="m208.403 146.754c0-55.33 28.856-97.321 67.597-108.148-6.424-1.795-13.119-2.737-20-2.737-48.379 0-87.597 46.38-87.597 110.885s39.219 140.155 87.597 140.155c6.881 0 13.576-1.535 20-4.346-38.741-16.952-67.597-80.479-67.597-135.809z" fill="#f3d6ac"/></g><g><path d="m91.07 426.843v21.327c7.157 6.519 14.704 12.617 22.599 18.262l-12.035-41.103c-1.75-5.98-10.564-4.716-10.564 1.514z" fill="#7f172d"/></g><g><path d="m420.93 426.843v21.327c-7.157 6.519-14.704 12.617-22.599 18.262l12.035-41.103c1.75-5.98 10.564-4.716 10.564 1.514z" fill="#962437"/></g><g><path d="m360.009 104.009c0-57.443-46.566-104.009-104.009-104.009-57.443 0-104.009 46.566-104.009 104.009 0 0 43.585-26.285 104.009-26.285 60.424-.001 104.009 26.285 104.009 26.285z" fill="#fd4343"/></g><g><path d="m256 0c-57.443 0-104.009 46.566-104.009 104.009 0 0 43.585-26.285 104.009-26.285 9.794 0 19.143.694 27.939 1.851v-9.739c-15.96-1.955-46.377-47.152-27.939-69.836z" fill="#c92e43"/></g><g><path d="m227.239 79.684c3.116-45.704 14.807-79.684 28.761-79.684-34.664 0-63.352 38.515-68.266 88.696 11.146-3.604 24.504-6.981 39.505-9.012z" fill="#962437"/></g><g><path d="m284.761 79.684c15.002 2.031 28.36 5.409 39.506 9.012-4.915-50.181-33.603-88.696-68.267-88.696 13.954 0 25.645 33.98 28.761 79.684z" fill="#c92e43"/></g><g><path d="m256 67.881c-71.468 0-104.009 36.128-104.009 36.128v25.587s32.541-36.128 104.009-36.128 104.009 36.128 104.009 36.128v-25.587s-32.541-36.128-104.009-36.128z" fill="#fdbf43"/></g><g><path d="m196.304 316.82v-29.482c0-5.322 4.314-9.637 9.637-9.637 1.885 0 3.728.553 5.302 1.589l26.743 17.618c11.233 7.4 17.994 19.951 17.994 33.403v14.356c-38.299.001-59.676-27.847-59.676-27.847z" fill="#c92e43"/></g><g><path d="m315.656 316.82v-29.482c0-5.322-4.314-9.637-9.637-9.637-1.885 0-3.728.553-5.302 1.589l-26.743 17.618c-11.233 7.4-17.994 19.951-17.994 33.403v14.356c38.299.001 59.676-27.847 59.676-27.847z" fill="#fd4343"/></g><g><path d="m288.48 397.168h-65c-4.142 0-7.5-3.358-7.5-7.5 0-4.142 3.358-7.5 7.5-7.5h65c4.142 0 7.5 3.358 7.5 7.5 0 4.142-3.358 7.5-7.5 7.5z" fill="#fdbf43"/></g><g><path d="m288.48 467.168h-65c-4.142 0-7.5-3.358-7.5-7.5 0-4.142 3.358-7.5 7.5-7.5h65c4.142 0 7.5 3.358 7.5 7.5 0 4.142-3.358 7.5-7.5 7.5z" fill="#fdbf43"/></g><g><circle cx="255.98" cy="389.668" fill="#fdd78d" r="15"/></g><g><circle cx="255.98" cy="459.668" fill="#fdd78d" r="15"/></g><g><path d="m325.588 436.176c2.931 3.79 8.133 4.978 12.419 2.838 12.246-6.115 21.76-17.453 25.048-31.838 3.287-14.385-.358-28.731-8.732-39.557-2.931-3.79-8.133-4.978-12.419-2.838-12.246 6.115-21.76 17.453-25.047 31.838-3.288 14.385.357 28.73 8.731 39.557z" fill="#7d402d"/></g><g><path d="m336.069 396.619c2.711-11.862 9.662-21.644 18.881-28.142-.211-.285-.411-.578-.628-.858-2.931-3.79-8.133-4.978-12.419-2.838-12.246 6.115-21.76 17.453-25.047 31.838s.358 28.731 8.732 39.557c2.931 3.79 8.133 4.978 12.419 2.838 2.148-1.072 4.205-2.314 6.166-3.696-7.917-10.722-11.306-24.687-8.104-38.699z" fill="#533022"/></g><g><path d="m330.134 289.247c-4.435-1.812-9.533-.235-12.171 3.764-7.536 11.426-10.092 26.005-5.731 40.102 4.36 14.097 14.701 24.687 27.372 29.863 4.435 1.812 9.533.235 12.171-3.764 7.536-11.426 10.092-26.005 5.731-40.102-4.36-14.097-14.701-24.687-27.372-29.863z" fill="#7d402d"/></g><g><path d="m336.762 333.114c-4.055-13.11-2.122-26.633 4.228-37.653-3.333-2.539-6.984-4.632-10.856-6.214-4.435-1.812-9.533-.235-12.171 3.764-7.536 11.426-10.092 26.005-5.731 40.102s14.701 24.688 27.372 29.863c4.435 1.812 9.533.235 12.171-3.764.528-.8 1.025-1.619 1.503-2.449-7.573-5.768-13.489-13.86-16.516-23.649z" fill="#533022"/></g><g><path d="m355.867 368.33-24.809 3.086c-4.11.511-7.857-2.406-8.368-6.517-.511-4.11 2.406-7.857 6.517-8.368l24.809-3.086c4.11-.511 7.857 2.406 8.368 6.517.511 4.11-2.407 7.857-6.517 8.368z" fill="#fdbf43"/></g><g><path d="m243.207 80.675c0-7.066 5.728-12.793 12.793-12.793-71.468 0-104.009 36.128-104.009 36.128v25.587s32.541-36.128 104.009-36.128c-7.066-.001-12.793-5.729-12.793-12.794z" fill="#fc9302"/></g></g></svg>