<svg id="Capa_1" enable-background="new 0 0 512 512" height="512" viewBox="0 0 512 512" width="512" xmlns="http://www.w3.org/2000/svg"><g><g><path d="m456.969 407.139c27.744-39.712 44.031-88.02 44.031-140.139 0-135.31-109.69-245-245-245s-245 109.69-245 245c0 52.119 16.287 100.427 44.031 140.139z" fill="#fc9302"/></g><g><circle cx="256" cy="222" fill="#fcb30b" r="180"/></g><g><path d="m189.131 50.075s-77.332 2.988-94.417 79.741c-1.086 4.881 4.715 8.287 8.426 4.937 4.959-4.476 12.879-2.425 15.041 3.896l.72 2.106c1.659 4.85 8.639 4.528 9.823-.459 5.614-23.639 20.654-63.476 60.407-90.221z" fill="#e4f1f2"/></g><g><path d="m322.869 50.075s77.332 2.988 94.417 79.741c1.086 4.881-4.715 8.287-8.426 4.937-4.959-4.476-12.879-2.425-15.041 3.896l-.72 2.106c-1.659 4.85-8.639 4.528-9.823-.459-5.614-23.639-20.654-63.476-60.407-90.221z" fill="#e4f1f2"/></g><g><circle cx="347.156" cy="40" fill="#013f69" r="40"/></g><g><circle cx="164.844" cy="40" fill="#012d4e" r="40"/></g><g><path d="m148.003 92.353c6.603 2.135 13.746 3.054 21.171 2.479 26.741-2.07 48.329-23.557 50.487-50.291.888-11.007-1.487-21.414-6.26-30.356-2.226-4.17-7.377-5.857-11.57-3.674-28.219 14.694-49.907 40.262-59.474 71.114-1.397 4.506 1.157 9.277 5.646 10.728z" fill="#f8feff"/></g><g><path d="m363.997 92.353c-6.603 2.135-13.746 3.054-21.171 2.479-26.741-2.07-48.329-23.557-50.487-50.291-.888-11.007 1.487-21.414 6.26-30.356 2.226-4.17 7.377-5.857 11.57-3.674 28.219 14.694 49.907 40.262 59.474 71.114 1.397 4.506-1.157 9.277-5.646 10.728z" fill="#f8feff"/></g><g><path d="m257.134 12c-58.069 0-105.143 47.074-105.143 105.143v30.076h210.286v-30.076c0-58.069-47.074-105.143-105.143-105.143z" fill="#013f69"/></g><g><path d="m276.941 143.063c-47.015-18.639-89.555-100.851-63.746-121.463-36.125 16.641-61.204 53.161-61.204 95.543v30.076h132.262c-2.098-1.641-4.514-3.046-7.312-4.156z" fill="#012d4e"/></g><g><path d="m150.362 466.429v-126.238l-14.07-9.885c-22.817 6.221-44.505 13.861-53.87 22.131-8.351 7.373-18.17 29.339-27.391 54.702 16.03 22.945 35.89 43.016 58.649 59.29z" fill="#eabe8d"/></g><g><path d="m456.908 407.139c-9.221-25.363-19.04-47.328-27.391-54.702-9.364-8.268-31.044-15.907-53.855-22.127l-14.064 9.88v126.24h36.693v.02c22.752-16.265 42.608-36.323 58.638-59.254-.008-.018-.014-.037-.021-.057z" fill="#f3d6ac"/></g><g><path d="m303.105 314.667c0-.031.003-.062.003-.093h-94.217v.01h-.062c-1.55.257-38.315 6.391-72.538 15.722 0 70.049-22.508 135.788-22.621 136.117 40.118 28.689 89.249 45.577 142.33 45.577 53.065 0 102.181-16.877 142.291-45.549v-.02s-22.622-65.896-22.623-136.119c-32.522-8.868-67.346-14.85-72.066-15.645z" fill="#c92e43"/></g><g><path d="m398.291 466.431c-193.353-.021-201.987-149.61-201.987-149.611-13.973 2.611-37.54 7.359-60.012 13.485v.001c0 70.049-22.508 135.788-22.621 136.117 40.117 28.689 89.248 45.577 142.329 45.577 53.065 0 102.181-16.877 142.291-45.549z" fill="#962437"/></g><g><path d="m256 512c2.509 0 5.009-.04 7.5-.115v-197.31h-15v197.31c2.491.075 4.991.115 7.5.115z" fill="#962437"/></g><g><path d="m248.5 511.885c2.491.075 4.991.115 7.5.115 2.51 0 5.008-.05 7.5-.125v-81.712c-5.426-3.801-10.412-7.787-15-11.894z" fill="#7f172d"/></g><g><path d="m303.602 220.734h-94.772v93.934s19.021 20 47.17 20 47.602-20 47.602-20z" fill="#eabe8d"/></g><g><path d="m331.058 159.567s10.385-25.285 28.897-19.415-.448 60.664-36.573 64.116z" fill="#f3d6ac"/></g><g><path d="m180.942 159.567s-10.385-25.285-28.897-19.415.448 60.664 36.573 64.116z" fill="#eabe8d"/></g><g><path d="m91.07 426.843v21.327c7.157 6.519 14.704 12.617 22.599 18.262l-12.035-41.103c-1.75-5.98-10.564-4.716-10.564 1.514z" fill="#e3ac6e"/></g><g><path d="m420.93 426.843v21.327c-7.157 6.519-14.704 12.617-22.599 18.262l12.035-41.103c1.75-5.98 10.564-4.716 10.564 1.514z" fill="#eabe8d"/></g><g><path d="m196.304 316.82v-29.482c0-5.322 4.314-9.637 9.637-9.637 1.885 0 3.728.553 5.302 1.589l26.743 17.618c11.233 7.4 17.994 19.951 17.994 33.403v14.356c-38.299.001-59.676-27.847-59.676-27.847z" fill="#c92e43"/></g><g><path d="m315.656 316.82v-29.482c0-5.322-4.314-9.637-9.637-9.637-1.885 0-3.728.553-5.302 1.589l-26.743 17.618c-11.233 7.4-17.994 19.951-17.994 33.403v14.356c38.299.001 59.676-27.847 59.676-27.847z" fill="#fd4343"/></g><g><path d="m288.48 397.168h-65c-4.142 0-7.5-3.358-7.5-7.5 0-4.142 3.358-7.5 7.5-7.5h65c4.142 0 7.5 3.358 7.5 7.5 0 4.142-3.358 7.5-7.5 7.5z" fill="#fdbf43"/></g><g><path d="m288.48 467.168h-65c-4.142 0-7.5-3.358-7.5-7.5 0-4.142 3.358-7.5 7.5-7.5h65c4.142 0 7.5 3.358 7.5 7.5 0 4.142-3.358 7.5-7.5 7.5z" fill="#fdbf43"/></g><g><circle cx="255.98" cy="389.668" fill="#fdd78d" r="15"/></g><g><circle cx="255.98" cy="459.668" fill="#fdd78d" r="15"/></g><g><path d="m343.549 143.073-.038-.009-27.855-54.367s-1.298 31.537-12.146 54.367h-10.872c-.71-4.248-2.616-13.346-6.82-20.829 0 0-1.644 12.113-8.877 20.829h-68.491c-10.848-22.83-12.146-54.367-12.146-54.367l-27.853 54.363c-.029 1.226-.048 2.456-.048 3.696 0 64.505 39.219 140.155 87.597 140.155s87.597-75.651 87.597-140.155c0-1.236-.019-2.462-.048-3.683z" fill="#f8e6cc"/></g><g><path d="m208.403 146.754c0-1.24.031-2.465.06-3.691h-.013c-10.848-22.83-12.146-54.367-12.146-54.367l-27.853 54.363c-.029 1.226-.048 2.456-.048 3.696 0 64.505 39.219 140.155 87.597 140.155 6.881 0 13.576-1.535 20-4.346-38.741-16.953-67.597-80.48-67.597-135.81z" fill="#f3d6ac"/></g></g></svg>