<svg id="Capa_1" enable-background="new 0 0 512 512" height="512" viewBox="0 0 512 512" width="512" xmlns="http://www.w3.org/2000/svg"><g><g><path d="m456.969 407.139c27.744-39.712 44.031-88.02 44.031-140.139 0-135.31-109.69-245-245-245s-245 109.69-245 245c0 52.119 16.287 100.427 44.031 140.139z" fill="#0ab59e"/></g><g><circle cx="256" cy="222" fill="#0ed1b2" r="180"/></g><g><path d="m384.998 226.328c-.394 4.025-3.579 7.209-7.603 7.603-11.498 1.126-23.388-2.708-32.195-11.515s-12.641-20.697-11.515-32.195c.394-4.025 3.579-7.209 7.603-7.603 11.498-1.126 23.388 2.708 32.195 11.515 8.808 8.807 12.641 20.697 11.515 32.195z" fill="#012d4e"/></g><g><path d="m341.288 340.968c-4.025-.394-7.209-3.579-7.603-7.603-1.126-11.498 2.708-23.388 11.515-32.195s20.697-12.641 32.195-11.515c4.025.394 7.209 3.579 7.603 7.603 1.126 11.498-2.708 23.388-11.515 32.195-8.806 8.807-20.697 12.641-32.195 11.515z" fill="#012d4e"/></g><g><path d="m127.002 226.328c.394 4.025 3.579 7.209 7.603 7.603 11.498 1.126 23.388-2.708 32.195-11.515s12.641-20.697 11.515-32.195c-.394-4.025-3.579-7.209-7.603-7.603-11.498-1.126-23.388 2.708-32.195 11.515-8.808 8.807-12.641 20.697-11.515 32.195z" fill="#012d4e"/></g><g><path d="m170.712 340.968c4.025-.394 7.209-3.579 7.603-7.603 1.126-11.498-2.708-23.388-11.515-32.195s-20.697-12.641-32.195-11.515c-4.025.394-7.209 3.579-7.603 7.603-1.126 11.498 2.708 23.388 11.515 32.195 8.806 8.807 20.697 12.641 32.195 11.515z" fill="#012d4e"/></g><g><path d="m340.376 80h-168.752c-22.091 0-40-17.909-40-40 0-22.091 17.909-40 40-40h168.751c22.091 0 40 17.909 40 40 .001 22.091-17.908 40-39.999 40z" fill="#012d4e"/></g><g><path d="m247.301 35.468s-96.419-20.934-141.948 68.378c-2.895 5.679 3.181 11.732 8.83 8.778 7.547-3.947 16.671 1.107 17.328 9.599l.219 2.829c.504 6.515 9.223 8.341 12.273 2.561 14.456-27.395 45.707-71.786 103.298-92.145z" fill="#e4f1f2"/></g><g><path d="m264.699 35.468s96.419-20.934 141.948 68.378c2.895 5.679-3.181 11.732-8.83 8.778-7.547-3.947-16.671 1.107-17.328 9.599l-.219 2.829c-.504 6.515-9.223 8.341-12.273 2.561-14.455-27.395-45.707-71.786-103.298-92.145z" fill="#e4f1f2"/></g><g><path d="m257.134 22c-58.069 0-105.143 47.074-105.143 105.143v20.076h210.286v-20.076c0-58.069-47.074-105.143-105.143-105.143z" fill="#013f69"/></g><g><path d="m343.512 143.021c-61.743-27.978-67.207-78.601-67.207-78.601v-40.671c-6.217-1.145-12.623-1.749-19.171-1.749-58.069 0-105.143 47.074-105.143 105.143v20.076h199.499c-2.414-1.475-5.067-2.878-7.978-4.198z" fill="#012d4e"/></g><g><path d="m331.058 159.567s10.385-25.285 28.897-19.415-.448 60.664-36.573 64.116z" fill="#f3d6ac"/></g><g><path d="m180.942 159.567s-10.385-25.285-28.897-19.415.448 60.664 36.573 64.116z" fill="#eabe8d"/></g><g><path d="m303.105 314.667c0-.031.003-.062.003-.093h-94.217v.01h-.062c-.035.006-.097.016-.168.028l-40.259 30.055-15.745 69.742h207.115l-15.745-69.742-40.115-29.947c-.11-.019-.223-.038-.312-.053z" fill="#f3d6ac"/></g><g><path d="m208.662 314.613-40.259 30.055-15.745 69.742h59.462c-12.042-55.695-3.458-99.794-3.458-99.797z" fill="#eabe8d"/></g><g><path d="m175.954 498.614c25.084 8.67 52.013 13.386 80.046 13.386 28.211 0 55.304-4.774 80.523-13.55l23.25-84.04h-207.115z" fill="#c92e43"/></g><g><path d="m175.954 498.614c25.084 8.67 52.013 13.386 80.046 13.386-24.244-32.413-37.216-66.775-43.879-97.59h-59.462z" fill="#962437"/></g><g><path d="m334.785 396.944c-24.724 8.395-51.221 12.953-78.785 12.953-27.477 0-53.892-4.531-78.549-12.876l-.006.002-24.787 17.386s47.873 25.487 103.342 25.487 103.773-25.487 103.773-25.487l-24.787-17.386z" fill="#fdbf43"/></g><g><path d="m241 424.897c0-8.284 6.716-15 15-15-27.477 0-53.892-4.531-78.549-12.876l-.006.002-24.787 17.386s47.873 25.487 103.342 25.487c-8.284.001-15-6.715-15-14.999z" fill="#fc9302"/></g><g><path d="m303.602 220.734h-94.772v93.934s19.021 20 47.17 20 47.602-20 47.602-20z" fill="#f3d6ac"/></g><g><path d="m208.83 220.734v93.851c94.723 0 94.772-53.41 94.772-53.41v-40.44h-94.772z" fill="#eabe8d"/></g><g><path d="m194.837 84.904c-10.322 3.439-17.93 12.279-20.432 22.867-2.552 10.801-6.002 27.519-6.002 38.984 0 64.505 39.219 140.155 87.597 140.155s87.597-75.65 87.597-140.155c0-1.674-.033-2.084-.085-3.733-81.411-.002-112.185-70.275-148.675-58.118z" fill="#f8e6cc"/></g><g><path d="m276 282.564c-38.741-16.953-67.597-80.479-67.597-135.809 0-21.971 4.564-41.826 12.476-58.475-8.87-4.459-17.292-6.291-26.042-3.376-10.322 3.439-17.93 12.279-20.432 22.867-2.552 10.801-6.002 27.519-6.002 38.984 0 64.505 39.219 140.155 87.597 140.155 6.881 0 13.576-1.535 20-4.346z" fill="#f3d6ac"/></g><g><path d="m208.83 261.677-6.178 19.725c-6.873 21.943-24.759 38.706-47.131 44.019-28.902 6.864-61.103 16.425-73.098 27.016-8.351 7.373-18.17 29.339-27.391 54.702 29.362 42.028 71.567 74.416 120.923 91.475v-80.345c0-56.561 32.708-103.656 32.708-103.656z" fill="#fd4343"/></g><g><path d="m303.17 261.677 6.178 19.725c6.873 21.943 24.759 38.706 47.131 44.019 28.902 6.864 61.103 16.425 73.098 27.016 8.351 7.373 18.17 29.339 27.391 54.702-29.362 42.028-71.567 74.416-120.923 91.475v-80.345c0-56.561-32.708-103.656-32.708-103.656z" fill="#fd4343"/></g><g><ellipse cx="257.134" cy="40" fill="#fdbf43" rx="63.866" ry="25.596"/></g><g><path d="m231.609 40c0-11.459 18.791-21.158 44.695-24.421-6.052-.762-12.491-1.175-19.171-1.175-35.272 0-63.866 11.459-63.866 25.596s28.594 25.596 63.866 25.596c6.68 0 13.119-.413 19.171-1.175-25.904-3.263-44.695-12.962-44.695-24.421z" fill="#fc9302"/></g><g><path d="m91.07 426.843v21.327c7.157 6.519 14.704 12.617 22.599 18.262l-12.035-41.103c-1.75-5.98-10.564-4.716-10.564 1.514z" fill="#c92e43"/></g><g><path d="m420.93 426.843v21.327c-7.157 6.519-14.704 12.617-22.599 18.262l12.035-41.103c1.75-5.98 10.564-4.716 10.564 1.514z" fill="#c92e43"/></g><g><path d="m386.886 292.701c-3.125 2.567-7.628 2.567-10.753 0-8.927-7.334-14.624-18.453-14.624-30.908s5.697-23.574 14.624-30.908c3.125-2.567 7.628-2.567 10.753 0 8.927 7.334 14.624 18.453 14.624 30.908-.001 12.455-5.698 23.574-14.624 30.908z" fill="#013f69"/></g><g><path d="m125.114 292.701c3.125 2.567 7.628 2.567 10.753 0 8.927-7.334 14.624-18.453 14.624-30.908s-5.697-23.574-14.624-30.908c-3.125-2.567-7.628-2.567-10.753 0-8.927 7.334-14.624 18.453-14.624 30.908.001 12.455 5.698 23.574 14.624 30.908z" fill="#013f69"/></g></g></svg>