<svg id="Capa_1" enable-background="new 0 0 512 512" height="512" viewBox="0 0 512 512" width="512" xmlns="http://www.w3.org/2000/svg"><g><g><path d="m456.969 407.139c27.744-39.712 44.031-88.02 44.031-140.139 0-135.31-109.69-245-245-245s-245 109.69-245 245c0 52.119 16.287 100.427 44.031 140.139z" fill="#fc9302"/></g><g><circle cx="256" cy="222" fill="#fcb30b" r="180"/></g><g><path d="m257.134 42c-58.069 0-105.143 47.074-105.143 105.143v20.076h210.286v-20.076c0-58.069-47.074-105.143-105.143-105.143z" fill="#f8feff"/></g><g><path d="m456.908 407.139c-9.221-25.363-19.04-47.328-27.391-54.702-22.713-20.055-117.884-36.418-125.915-37.77h-.496c0-.031.003-.062.003-.093h-94.217v.01h-.062c-2.584.428-102.995 17.179-126.408 37.852-8.351 7.373-18.17 29.339-27.391 54.702 30.255 43.307 74.146 76.379 125.447 92.99l.008-.008h150.972l.005.027c51.304-16.598 95.201-49.657 125.467-92.952-.009-.017-.015-.036-.022-.056z" fill="#c92e43"/></g><g><path d="m398.319 466.431c-193.38-.006-202.015-149.609-202.015-149.611-28.161 5.261-95.292 19.202-113.882 35.617-8.351 7.373-18.17 29.339-27.391 54.702 44.284 63.388 117.778 104.861 200.969 104.861 53.077 0 102.204-16.885 142.319-45.569z" fill="#962437"/></g><g><path d="m256 500.149 14.461 11.414v.013c21.166-1.236 41.608-5.165 60.997-11.436 27.157-30.039 44.523-75.934 44.523-127.373 0-90.491-53.726-163.849-120-163.849z" fill="#fd4343"/></g><g><path d="m255.98 208.919c-66.274 0-120 73.358-120 163.849 0 51.428 17.358 97.314 44.506 127.354 19.393 6.277 39.84 10.212 61.012 11.452v-.013l14.502-11.412z" fill="#c92e43"/></g><g><path d="m255.98 208.919c-12.646 0-24.832 2.678-36.278 7.63-.001.005-43.296 166.677 21.796 295.013 4.8.28 9.632.439 14.502.439 4.856 0 9.675-.157 14.461-.436 65.094-128.336 21.799-295.01 21.798-295.015-11.447-4.953-23.633-7.631-36.279-7.631z" fill="#841930"/></g><g><path d="m331.058 179.567s10.385-25.285 28.897-19.415-.448 60.664-36.573 64.116z" fill="#f3d6ac"/></g><g><path d="m180.942 179.567s-10.385-25.285-28.897-19.415.448 60.664 36.573 64.116z" fill="#eabe8d"/></g><g><path d="m298.425 102.935c-8.194-3.962-15.757-4.069-22.159-2.497-13.318 3.269-27.216 3.269-40.534 0-6.402-1.571-13.965-1.465-22.158 2.497-23.858 11.538-45.024 58.693-45.087 58.833-.052 1.651-.085 3.311-.085 4.987 0 64.505 39.219 140.155 87.597 140.155s87.597-75.651 87.597-140.155c0-1.676-.033-3.336-.085-4.987-.062-.141-21.227-47.296-45.086-58.833z" fill="#f8e6cc"/></g><g><path d="m198.403 166.754c0-24.383 5.62-46.158 15.205-63.835-.011.005-.022.009-.033.015-23.858 11.538-45.024 58.693-45.087 58.833-.052 1.651-.085 3.311-.085 4.987 0 64.505 39.219 140.155 87.597 140.155 5.115 0 10.126-.854 15-2.443-41.231-13.437-72.597-80.027-72.597-137.712z" fill="#f3d6ac"/></g><g><path d="m91.07 426.843v21.327c7.157 6.519 14.704 12.617 22.599 18.262l-12.035-41.103c-1.75-5.98-10.564-4.716-10.564 1.514z" fill="#841930"/></g><g><path d="m420.93 426.843v21.327c-7.157 6.519-14.704 12.617-22.599 18.262l12.035-41.103c1.75-5.98 10.564-4.716 10.564 1.514z" fill="#962437"/></g><g><path d="m256 224.268-47.255 25.966s1.268 87.06 21.105 143.146c1.949 5.51 9.782 5.395 11.576-.167s2.817 17.108 8.795 34.22c1.918 5.49 9.642 5.49 11.56 0 5.977-17.112 8.795-34.22 8.795-34.22 1.794 5.562 9.627 5.677 11.576.167 19.837-56.085 21.105-143.146 21.105-143.146z" fill="#e4f1f2"/></g><g><path d="m290.083 197.493c-22.618-9.77-34.083 11.426-34.083 11.426s-11.465-21.196-34.083-11.426c-31.382 13.555-40.647 116.832-12.229 247.647 1.258 5.79 9.766 4.961 9.888-.962 1.111-53.983 7.486-147.269 36.424-204.556 28.938 57.287 35.313 150.573 36.424 204.556.122 5.924 8.63 6.752 9.888.962 28.418-130.815 19.153-234.091-12.229-247.647z" fill="#f8feff"/></g><g><path d="m257.134 15-64.47-.596 4.443 46.412s20.841 11.898 60.026 11.898 60.026-11.898 60.026-11.898l4.443-46.412z" fill="#012d4e"/></g><g><path d="m361 30h-210c-8.284 0-15-6.716-15-15 0-8.284 6.716-15 15-15h210c8.284 0 15 6.716 15 15 0 8.284-6.716 15-15 15z" fill="#013f69"/></g><g><path d="m216 15c0-8.284 6.716-15 15-15h-80c-8.284 0-15 6.716-15 15s6.716 15 15 15h80c-8.284 0-15-6.716-15-15z" fill="#012d4e"/></g></g></svg>