<svg id="Capa_1" enable-background="new 0 0 512 512" height="512" viewBox="0 0 512 512" width="512" xmlns="http://www.w3.org/2000/svg"><g><g><path d="m17.169 212.151 238.831 54.849 181.213-89.745 10.451-62.857c-44.889-56.305-114.057-92.398-191.664-92.398-116.453 0-213.924 81.249-238.831 190.151z" fill="#012d4e"/></g><g><path d="m392.909 298.232-204.405-35.714v-168.232l204.405 35.714z" fill="#e4f1f2"/></g><g><path d="m188.504 94.286v168.232l78.021 13.632v-43.046c-26.9-61.13 13.765-92.781 13.765-92.781v-30z" fill="#b3d1e1"/></g><g><path d="m188.504 94.286v30l204.405 35.714v-30z" fill="#f8feff"/></g><g><path d="m286.884 111.475-98.38-17.189v30l91.786 16.037c-4.256-2.839-7.063-7.68-7.063-13.18.001-8.004 5.945-14.604 13.657-15.668z" fill="#e4f1f2"/></g><g><g><path d="m214.839 220.336h-170.612l17.959-157.479h134.694z" fill="#e4f1f2"/></g><g><path d="m62.186 62.857-17.959 157.479h53.283l17.959-157.479z" fill="#b3d1e1"/></g><g><path d="m205.859 0h-26.939c-4.959 0-8.98 4.02-8.98 8.98v17.959c0 4.959-4.02 8.98-8.98 8.98-4.959 0-8.98-4.02-8.98-8.98v-17.959c0-4.959-4.02-8.98-8.98-8.98h-26.939c-4.959 0-8.98 4.02-8.98 8.98v17.959c0 4.959-4.02 8.98-8.98 8.98-4.959 0-8.98-4.02-8.98-8.98v-17.959c0-4.959-4.02-8.98-8.98-8.98h-26.935c-4.959 0-8.98 4.02-8.98 8.98v44.898c0 9.919 8.041 17.959 17.959 17.959h134.695c9.919 0 17.959-8.041 17.959-17.959v-44.898c0-4.96-4.021-8.98-8.98-8.98z" fill="#f8feff"/></g><g><path d="m89.124 53.878v-44.898c0-4.959-4.02-8.98-8.98-8.98h-26.938c-4.959 0-8.98 4.02-8.98 8.98v44.898c0 9.919 8.041 17.959 17.959 17.959h44.898c-9.918 0-17.959-8.041-17.959-17.959z" fill="#e4f1f2"/></g><g><path d="m201.369 103.265h-143.673c-4.959 0-8.98-4.02-8.98-8.98 0-4.959 4.02-8.98 8.98-8.98h143.673c4.959 0 8.98 4.02 8.98 8.98 0 4.96-4.02 8.98-8.98 8.98z" fill="#f8feff"/></g><g><path d="m98.104 94.286c0-4.959 4.02-8.98 8.98-8.98h-49.388c-4.959 0-8.98 4.02-8.98 8.98s4.02 8.98 8.98 8.98h49.388c-4.96-.001-8.98-4.021-8.98-8.98z" fill="#e4f1f2"/></g><g><path d="m138.512 161.633h-17.959c-2.48 0-4.49-2.01-4.49-4.49v-26.939c0-7.439 6.03-13.469 13.469-13.469 7.439 0 13.469 6.03 13.469 13.469v26.939c.001 2.479-2.009 4.49-4.489 4.49z" fill="#b3d1e1"/></g><g><path d="m183.41 161.633h-17.959c-2.48 0-4.49-2.01-4.49-4.49v-26.939c0-7.439 6.03-13.469 13.469-13.469 7.439 0 13.469 6.03 13.469 13.469v26.939c.001 2.479-2.009 4.49-4.489 4.49z" fill="#b3d1e1"/></g><g><path d="m93.614 161.633h-17.959c-2.48 0-4.49-2.01-4.49-4.49v-26.939c0-7.439 6.03-13.469 13.469-13.469 7.439 0 13.469 6.03 13.469 13.469v26.939c.001 2.479-2.009 4.49-4.489 4.49z" fill="#75a5d3"/></g></g><g><path d="m32.504 301.189h364.52c-87.574-66.594-213.436-108.643-379.855-89.038-2.683 11.731-4.505 23.787-5.439 36.093z" fill="#0ab59e"/></g><g><path d="m150.447 421.381 230.055-52.055v-162.012l-230.055 52.055z" fill="#e4f1f2"/></g><g><path d="m263.853 233.708-113.406 25.66v162.012l110.544-25.013v-40.745c-33.456-49.419 2.862-91.915 2.862-91.915z" fill="#b3d1e1"/></g><g><path d="m150.447 259.369v30l230.055-52.055v-30z" fill="#f8feff"/></g><g><path d="m250.021 248.341c0-5.588 2.976-10.468 7.419-13.182l-106.994 24.21v30l113.406-25.661c-7.771-.811-13.831-7.38-13.831-15.367z" fill="#e4f1f2"/></g><g><g><path d="m501 267c0-31.679-6.014-61.953-16.96-89.745h-100.11l-17.96 157.479h125.538c6.177-21.513 9.492-44.235 9.492-67.734z" fill="#e4f1f2"/></g><g><path d="m383.93 177.255-17.96 157.479h53.284l17.959-157.479z" fill="#b3d1e1"/></g><g><path d="m447.664 114.398h-9.857c-4.959 0-8.979 4.02-8.979 8.979v17.959c0 4.959-4.02 8.979-8.98 8.979s-8.98-4.02-8.98-8.979v-17.959c0-4.959-4.02-8.979-8.979-8.979h-26.939c-4.959 0-8.98 4.02-8.98 8.979v44.898c0 9.918 8.041 17.959 17.959 17.959h103.427c-9.17-26.273-22.686-50.505-39.692-71.836z" fill="#f8feff"/></g><g><path d="m410.868 168.275v-44.898c0-4.959-4.02-8.98-8.98-8.98h-26.938c-4.959 0-8.98 4.02-8.98 8.98v44.898c0 9.919 8.041 17.959 17.959 17.959h44.898c-9.918.001-17.959-8.04-17.959-17.959z" fill="#e4f1f2"/></g><g><path d="m491.639 199.704h-112.199c-4.959 0-8.98 4.02-8.98 8.979s4.02 8.979 8.98 8.979h116.59c-1.241-6.07-2.709-12.059-4.391-17.958z" fill="#f8feff"/></g><g><path d="m419.848 208.684c0-4.959 4.02-8.98 8.98-8.98h-49.388c-4.959 0-8.98 4.02-8.98 8.98s4.02 8.98 8.98 8.98h49.388c-4.96-.001-8.98-4.021-8.98-8.98z" fill="#e4f1f2"/></g><g><path d="m460.256 276.031h-17.959c-2.48 0-4.49-2.01-4.49-4.49v-26.939c0-7.439 6.03-13.469 13.469-13.469 7.439 0 13.469 6.03 13.469 13.469v26.939c.001 2.479-2.009 4.49-4.489 4.49z" fill="#b3d1e1"/></g><g><path d="m482.705 244.602v26.939c0 2.479 2.01 4.49 4.49 4.49h13.622c.109-2.998.183-6.006.183-9.031 0-12.116-.894-24.022-2.593-35.667-.728-.122-1.47-.2-2.232-.2-7.439 0-13.47 6.03-13.47 13.469z" fill="#b3d1e1"/></g><g><path d="m415.358 276.031h-17.959c-2.48 0-4.49-2.01-4.49-4.49v-26.939c0-7.439 6.03-13.469 13.469-13.469 7.439 0 13.469 6.03 13.469 13.469v26.939c.001 2.479-2.009 4.49-4.489 4.49z" fill="#75a5d3"/></g></g><g><path d="m141.089 407.275 32.873 90.634-.001.015c25.649 9.114 53.264 14.076 82.039 14.076 111.811 0 206.122-74.903 235.509-177.266-98.772-9.525-229.488 1.604-350.42 72.541z" fill="#0ed1b2"/></g><g><path d="m260.99 355.623c-40.045 11.767-80.493 28.532-119.903 51.647l32.875 90.639-.001.015c25.649 9.114 53.264 14.076 82.039 14.076 48.433 0 93.576-14.062 131.587-38.314-115.192 24.215-172.791-86.5-126.597-118.063z" fill="#0ab59e"/></g><g><g><path d="m16.88 320.52c18.407 82.602 78.511 149.472 157.083 177.389l-21.309-186.856h-134.695z" fill="#e4f1f2"/></g><g><path d="m16.88 320.52c7.626 34.222 22.397 65.75 42.687 92.922l11.677-102.388h-53.285z" fill="#b3d1e1"/></g><g><path d="m161.633 248.196h-26.939c-4.959 0-8.98 4.02-8.98 8.979v17.959c0 4.959-4.02 8.98-8.98 8.98s-8.98-4.021-8.98-8.98v-17.959c0-4.959-4.02-8.979-8.98-8.979h-26.937c-4.959 0-8.98 4.02-8.98 8.979v17.959c0 4.959-4.02 8.98-8.98 8.98s-8.98-4.021-8.98-8.98v-17.959c0-4.959-4.02-8.979-8.98-8.979h-24.206c-.471 6.206-.711 12.477-.711 18.804 0 18.191 2 35.912 5.76 52.972.398.026.794.061 1.199.061h134.694c9.919 0 17.959-8.041 17.959-17.959v-44.898c0-4.96-4.02-8.98-8.979-8.98z" fill="#f8feff"/></g><g><path d="m16.76 319.972c.398.026.794.061 1.199.061h44.898c-9.919 0-17.959-8.041-17.959-17.959v-44.898c0-4.959-4.02-8.979-8.98-8.979h-24.207c-.471 6.205-.711 12.476-.711 18.803 0 18.191 2 35.912 5.76 52.972z" fill="#e4f1f2"/></g><g><path d="m157.143 333.502h-137.003c1.712 6.085 3.65 12.076 5.811 17.959h131.192c4.959 0 8.98-4.02 8.98-8.979s-4.021-8.98-8.98-8.98z" fill="#f8feff"/></g><g><path d="m62.857 333.502h-42.717c1.712 6.085 3.65 12.076 5.811 17.959h36.906c-4.959 0-8.98-4.02-8.98-8.979s4.021-8.98 8.98-8.98z" fill="#e4f1f2"/></g><g><path d="m94.286 409.828h-17.959c-2.48 0-4.49-2.01-4.49-4.49v-26.938c0-7.439 6.03-13.469 13.469-13.469 7.439 0 13.469 6.03 13.469 13.469v26.939c.001 2.479-2.01 4.489-4.489 4.489z" fill="#b3d1e1"/></g><g><path d="m139.184 409.828h-17.959c-2.48 0-4.49-2.01-4.49-4.49v-26.938c0-7.439 6.03-13.469 13.469-13.469 7.439 0 13.469 6.03 13.469 13.469v26.939c0 2.479-2.01 4.489-4.489 4.489z" fill="#b3d1e1"/></g><g><path d="m40.408 364.93c-2.957 0-5.683.964-7.904 2.579 6.003 13.328 13.172 26.015 21.362 37.948.001-.041.012-.079.012-.119v-26.938c0-7.439-6.031-13.47-13.47-13.47z" fill="#75a5d3"/></g></g><g><path d="m259.872 174.042h-20c-5.523 0-10-4.477-10-10 0-5.523 4.477-10 10-10h20c5.523 0 10 4.477 10 10 0 5.523-4.477 10-10 10z" fill="#b3d1e1"/></g><g><path d="m259.872 154.042h-20c-5.523 0-10 4.477-10 10s4.477 10 10 10h19.882c1.777-6.722 4.343-12.455 7.067-17.183-1.8-1.741-4.247-2.817-6.949-2.817z" fill="#75a5d3"/></g><g><path d="m308.894 199.704h-20c-5.523 0-10-4.477-10-10 0-5.523 4.477-10 10-10h20c5.523 0 10 4.477 10 10 0 5.523-4.478 10-10 10z" fill="#b3d1e1"/></g><g><path d="m220.349 316.979h-20c-5.523 0-10-4.477-10-10 0-5.523 4.477-10 10-10h20c5.523 0 10 4.477 10 10 0 5.523-4.477 10-10 10z" fill="#75a5d3"/></g><g><path d="m259.872 341.807h-20c-5.523 0-10-4.477-10-10 0-5.523 4.477-10 10-10h20c5.523 0 10 4.477 10 10 0 5.523-4.477 10-10 10z" fill="#b3d1e1"/></g><g><path d="m247.51 321.807h-7.638c-5.523 0-10 4.477-10 10s4.477 10 10 10h13.406c-3.069-6.919-4.881-13.62-5.768-20z" fill="#75a5d3"/></g><g><path d="m340.043 294.114h-20c-5.523 0-10-4.477-10-10 0-5.523 4.477-10 10-10h20c5.523 0 10 4.477 10 10 0 5.523-4.478 10-10 10z" fill="#b3d1e1"/></g></g></svg>