<svg id="Capa_1" enable-background="new 0 0 512 512" height="512" viewBox="0 0 512 512" width="512" xmlns="http://www.w3.org/2000/svg"><g><g><path d="m451 393.247h15c22.214-36.871 35-80.064 35-126.247 0-135.31-109.69-245-245-245s-245 109.69-245 245c0 46.183 12.786 89.376 35 126.247h15l15 39.939c44.761 48.458 108.831 78.814 180 78.814s135.239-30.356 180-78.814z" fill="#012d4e"/></g><g><circle cx="256" cy="312" fill="#013f69" r="180"/></g><g><path d="m349.974 259.268c-3.307 0-6.334-2.203-7.237-5.549l-22.482-83.357h-128.51l-22.482 83.357c-1.079 3.999-5.194 6.368-9.194 5.288-3.999-1.078-6.367-5.195-5.288-9.194l23.979-88.904c.883-3.272 3.851-5.547 7.241-5.547h140c3.39 0 6.358 2.274 7.241 5.547l23.979 88.904c1.079 3.999-1.289 8.116-5.288 9.194-.655.177-1.313.261-1.959.261z" fill="#e4f1f2"/></g><g><path d="m61 102.861h390v30h-390z" fill="#b3d1e1"/></g><g><path d="m46 393.247c8.638 14.337 18.706 27.712 30 39.939v-278.952h-30z" fill="#b3d1e1"/></g><g><path d="m46 154.234v92.631c0-8.21 6.655-14.865 14.865-14.865h.27c8.21 0 14.865 6.655 14.865 14.865v-92.631z" fill="#75a5d3"/></g><g><path d="m76 173.638h-30c-5.523 0-10-4.477-10-10v-70h50v70c0 5.523-4.477 10-10 10z" fill="#962437"/></g><g><path d="m466 393.247v-239.013h-30v278.952c11.294-12.227 21.362-25.602 30-39.939z" fill="#b3d1e1"/></g><g><path d="m436 154.234v92.631c0-8.21 6.655-14.865 14.865-14.865h.27c8.21 0 14.865 6.655 14.865 14.865v-92.631z" fill="#75a5d3"/></g><g><path d="m436 173.638h30c5.523 0 10-4.477 10-10v-70h-50v70c0 5.523 4.477 10 10 10z" fill="#c92e43"/></g><g><path d="m501 98.848c0 12.031-10.61 21.249-22.538 19.677-30.487-4.017-59.551-16.176-85.104-35.757-37.036-28.378-83.25-42.768-137.358-42.768s-100.322 14.39-137.358 42.768c-25.552 19.58-54.617 31.74-85.104 35.757-11.928 1.571-22.538-7.646-22.538-19.677v-.021c0-10.243 7.804-18.698 17.991-19.765 32.142-3.366 62.831-15.743 89.651-36.294 37.036-28.378 83.25-42.768 137.358-42.768s100.322 14.39 137.358 42.768c26.82 20.552 57.509 32.928 89.651 36.294 10.187 1.067 17.991 9.522 17.991 19.765z" fill="#fd4343"/></g><g><circle cx="256" cy="342" fill="#fdbf43" r="140"/></g><g><path d="m241 467c0-8.284 6.716-15 15-15v-220c-8.284 0-15-6.716-15-15s6.716-15 15-15c-77.32 0-140 62.68-140 140s62.68 140 140 140c-8.284 0-15-6.716-15-15z" fill="#fcb30b"/></g><g><circle cx="256" cy="342" fill="#fcb30b" r="110"/></g><g><path d="m194.901 342c0-52.253 36.624-96.11 85.55-107.257-7.867-1.793-16.05-2.743-24.451-2.743-60.654 0-110 49.346-110 110s49.346 110 110 110c8.401 0 16.584-.95 24.45-2.743-48.925-11.147-85.549-55.004-85.549-107.257z" fill="#fc9302"/></g><g><circle cx="256" cy="342" fill="#fdbf43" r="40"/></g><g><circle cx="266.713" cy="334.011" fill="#fdd78d" r="17.372"/></g><g><path d="m186 183.638c-5.523 0-10-4.477-10-10v-70c0-5.523 4.477-10 10-10 5.523 0 10 4.477 10 10v70c0 5.523-4.477 10-10 10z" fill="#fd4343"/></g><g><path d="m326 183.638c-5.523 0-10-4.477-10-10v-70c0-5.523 4.477-10 10-10 5.523 0 10 4.477 10 10v70c0 5.523-4.477 10-10 10z" fill="#fd4343"/></g><g><path d="m326 183.638c-5.523 0-10-4.477-10-10v-70c0-5.523 4.477-10 10-10 5.523 0 10 4.477 10 10v70c0 5.523-4.477 10-10 10z" fill="#fd4343"/></g><g><path d="m186 147.861c-5.523 0-10-4.477-10-10v35.777c0 5.523 4.477 10 10 10s10-4.477 10-10v-35.777c0 5.523-4.477 10-10 10z" fill="#c92e43"/></g><g><path d="m326 147.861c-5.523 0-10-4.477-10-10v35.777c0 5.523 4.477 10 10 10s10-4.477 10-10v-35.777c0 5.523-4.477 10-10 10z" fill="#c92e43"/></g><g><path d="m236 20c0-11.046 8.954-20 20-20-54.108 0-100.322 14.39-137.358 42.768-26.82 20.552-57.509 32.928-89.651 36.294-10.187 1.067-17.991 9.522-17.991 19.765v.021c0 12.031 10.61 21.249 22.538 19.677 30.487-4.017 59.551-16.176 85.104-35.757 37.036-28.378 83.25-42.768 137.358-42.768-11.046 0-20-8.954-20-20z" fill="#c92e43"/></g></g></svg>