<svg id="Capa_1" enable-background="new 0 0 512 512" height="512" viewBox="0 0 512 512" width="512" xmlns="http://www.w3.org/2000/svg"><g><g><circle cx="256" cy="245" fill="#fc9302" r="245"/></g><g><circle cx="256" cy="220" fill="#fcb30b" r="200"/></g><g><path d="m346.479 241.384c-4.553 0-8.948.67-13.103 1.897-3.603-7.728-11.437-13.087-20.526-13.087-8.162 0-15.314 4.321-19.297 10.799-1.991-.358-4.037-.555-6.131-.555-19.01 0-34.42 15.411-34.42 34.42s15.411 34.42 34.42 34.42c5.918 0 11.486-1.495 16.35-4.125 6.918 16.781 23.43 28.596 42.707 28.596 25.506 0 46.183-20.677 46.183-46.183s-20.677-46.182-46.183-46.182z" fill="#01988c"/></g><g><g><path d="m300.296 287.567c0-20.953 13.959-38.637 33.081-44.286 0 0-.001 0-.002 0-3.603-7.728-11.437-13.087-20.526-13.087-8.162 0-15.314 4.321-19.297 10.799-1.991-.358-4.037-.555-6.131-.555-19.01 0-34.42 15.411-34.42 34.42s15.411 34.42 34.42 34.42c5.918 0 11.486-1.495 16.35-4.125.001.001-3.475-8.579-3.475-17.586z" fill="#006e66"/></g></g><g><path d="m139.077 105.043s6.23 24.921 45.482 32.398c39.251 7.476 66.665 18.691 61.058 64.796l-30.321 4.984s12.876-31.983-17.03-47.766-67.703-15.368-76.426-54.412z" fill="#533022"/></g><g><path d="m91.519 249.587s29.075 29.49 102.178 17.03l17.622 33.054s-15.13-9.378-52.097-13.116-61.888-15.368-78.087-36.967h10.384z" fill="#422319"/></g><g><path d="m408.436 154.055s-9.553 39.459-62.304 39.459-123.776-12.876-156.59 22.845 15.784 76.841 30.736 92.209c14.953 15.368 16.328 54.388-41.887 79.529h183.108s-4.984-52.946-32.813-80.775-84.733-38.628-98.024-63.55c-13.291-24.921 24.117-30.269 116.251-30.269 48.23 0 72.321-30.788 83.951-59.448z" fill="#7d402d"/></g><g><path d="m178.393 388.097h85.511c1.14-2.341 2.137-4.776 2.969-7.309 17.617-53.617-15.319-87.319-42.128-106.159s-35.202-58.27-7.282-75.911c-10.86 3.822-20.396 9.451-27.92 17.641-32.813 35.721 15.784 76.841 30.736 92.209 14.953 15.368 16.328 54.388-41.886 79.529z" fill="#533022"/></g><g><path d="m36 388.097v.554c0 39.077 9.241 77.599 26.969 112.423 3.414 6.704 10.3 10.926 17.824 10.926h350.414c7.523 0 14.41-4.222 17.823-10.926 17.729-34.824 26.97-73.347 26.97-112.424v-.553z" fill="#c92e43"/></g><g><path d="m162.969 501.073c-17.728-34.823-26.969-73.346-26.969-112.423v-.554h-100v.554c0 39.077 9.241 77.599 26.969 112.423 3.414 6.705 10.3 10.927 17.824 10.927h100c-7.524 0-14.41-4.222-17.824-10.927z" fill="#962437"/></g><g><path d="m486 403.097h-460c-8.284 0-15-6.716-15-15 0-8.284 6.716-15 15-15h460c8.284 0 15 6.716 15 15 0 8.284-6.716 15-15 15z" fill="#fd4343"/></g><g><path d="m486 448.097h-460c-8.284 0-15-6.716-15-15 0-8.284 6.716-15 15-15h460c8.284 0 15 6.716 15 15 0 8.284-6.716 15-15 15z" fill="#fd4343"/></g><g><path d="m111 388.097c0-8.284 6.716-15 15-15h-100c-8.284 0-15 6.716-15 15s6.716 15 15 15h100c-8.284 0-15-6.716-15-15z" fill="#c92e43"/></g><g><path d="m111 433.097c0-8.284 6.716-15 15-15h-100c-8.284 0-15 6.716-15 15s6.716 15 15 15h100c-8.284 0-15-6.716-15-15z" fill="#c92e43"/></g><g><path d="m501 112.348c0-21.754-17.635-39.388-39.388-39.388-5.93 0-11.55 1.319-16.594 3.666-3.794-14.885-17.288-25.894-33.354-25.894-16.081 0-29.584 11.029-33.364 25.934-7.338-5.398-16.396-8.592-26.204-8.592-24.452 0-44.274 19.822-44.274 44.274s19.822 44.274 44.274 44.274c5.124 0 10.041-.881 14.619-2.482 7.084 16.41 23.405 27.898 42.414 27.898 7.365 0 14.322-1.732 20.5-4.799 6.295 6.903 15.361 11.236 25.439 11.236 19.01 0 34.42-15.411 34.42-34.42 0-4.19-.751-8.205-2.122-11.919 8.346-7.223 13.634-17.885 13.634-29.788z" fill="#01988c"/></g><g><g><path d="m362.946 135.855c0-25.506 20.677-46.183 46.183-46.183 6.385 0 12.467 1.296 17.999 3.639 4.094-7.399 10.505-13.329 18.246-16.84-.118.053-.239.1-.356.154-3.794-14.885-17.288-25.894-33.354-25.894-16.081 0-29.584 11.029-33.364 25.934-7.338-5.398-16.396-8.592-26.204-8.592-24.452 0-44.274 19.822-44.274 44.274s19.822 44.274 44.274 44.274c5.124 0 10.041-.881 14.619-2.482.004.01.009.019.013.029-2.429-5.615-3.782-11.805-3.782-18.313z" fill="#006e66"/></g></g><g><path d="m137.183 213.603c-.789 0-1.568.04-2.341.102-6.087-18.392-23.409-31.666-43.842-31.666-25.234 0-45.727 20.241-46.162 45.371-11.177 5.686-18.838 17.288-18.838 30.687 0 19.01 15.411 34.42 34.42 34.42 4.951 0 9.654-1.053 13.908-2.936 6.199 9.069 16.62 15.023 28.434 15.023 18.379 0 33.391-14.405 34.367-32.54.018 0 .035.001.053.001 16.144 0 29.232-13.088 29.232-29.232s-13.087-29.23-29.231-29.23z" fill="#01988c"/></g><g><g><path d="m68.342 270.185c0-.57.016-1.137.043-1.701-14.063-7.916-23.568-22.975-23.568-40.263 0-.273.016-.542.021-.813v.002c-11.177 5.686-18.838 17.288-18.838 30.687 0 19.01 15.411 34.42 34.42 34.42 4.951 0 9.654-1.053 13.908-2.936-3.775-5.522-5.986-12.2-5.986-19.396z" fill="#006e66"/></g></g><g><path d="m275.366 68.074c0-25.506-20.677-46.183-46.183-46.183-6.128 0-11.973 1.204-17.324 3.372-5.541-11.584-17.368-19.587-31.067-19.587-7.255 0-13.982 2.25-19.532 6.083-9.82-7.382-22.028-11.759-35.26-11.759-29.986 0-54.706 22.47-58.286 51.488-21.55 3.906-37.897 22.751-37.897 45.427 0 25.506 20.677 46.183 46.183 46.183 9.113 0 17.602-2.65 24.759-7.207 7.08 12.104 20.206 20.24 35.241 20.24 15.027 0 28.149-8.129 35.231-20.223 5.288 2.109 11.052 3.281 17.092 3.281 17.842 0 33.31-10.125 41.001-24.936 25.441-.077 46.042-20.72 46.042-46.179z" fill="#01988c"/></g><g><g><path d="m142.14 93.006c0-11.975 4.558-22.884 12.034-31.09-4.874-5.939-7.801-13.537-7.801-21.82 0-11.755 5.896-22.128 14.889-28.338-9.822-7.381-22.03-11.758-35.262-11.758-29.986 0-54.706 22.47-58.286 51.488-21.55 3.906-37.897 22.751-37.897 45.427 0 25.506 20.677 46.183 46.183 46.183 9.113 0 17.602-2.65 24.759-7.207 7.08 12.104 20.206 20.24 35.241 20.24 15.027 0 28.149-8.129 35.231-20.223h.001c-17.043-6.795-29.092-23.436-29.092-42.902z" fill="#006e66"/></g></g></g></svg>