<svg id="Capa_1" enable-background="new 0 0 512 512" height="512" viewBox="0 0 512 512" width="512" xmlns="http://www.w3.org/2000/svg"><g><g><circle cx="256" cy="245" fill="#012d4e" r="245"/></g><g><path d="m256 392c-135.31 0-245 26.863-245 60s109.69 60 245 60c68.741 0 130.862-6.935 175.355-18.101 4.044-1.015 7.012-4.463 7.463-8.608l1.915-17.612c.407-3.745 4.653-5.712 7.773-3.601l19.019 12.87c3.018 2.042 6.921 2.303 10.155.625 14.951-7.758 23.32-16.426 23.32-25.573 0-33.137-109.69-60-245-60z" fill="#0ed1b2"/></g><g><path d="m256 392c-71.124 0-135.157 7.425-179.914 19.279 44.757 48.403 108.79 78.721 179.914 78.721s135.157-30.318 179.914-78.721c-44.757-11.854-108.79-19.279-179.914-19.279z" fill="#01988c"/></g><g><g><path d="m115.136 106.509c56.862 70.1 113.207 170.267 38.374 245.367-4.956 4.974-12.569 6.079-18.735 2.719-93.095-50.725-67.553-162.778-32.966-246.151 2.277-5.49 9.582-6.551 13.327-1.935z" fill="#e56376"/></g><g><path d="m170.435 63.233c56.862 70.1 113.207 170.267 38.374 245.367-4.956 4.974-12.569 6.079-18.735 2.719-93.096-50.726-67.553-162.779-32.967-246.152 2.279-5.49 9.584-6.55 13.328-1.934z" fill="#fd9898"/></g><g><path d="m168.479 109.801s-7.224 73.306 37.457 152.104c0 0-5.212-80.707-37.457-152.104z" fill="#ef7280"/></g><g><path d="m396.864 106.509c-56.862 70.1-113.207 170.267-38.374 245.367 4.956 4.974 12.569 6.079 18.734 2.719 93.096-50.726 67.553-162.779 32.967-246.152-2.277-5.489-9.582-6.55-13.327-1.934z" fill="#e56376"/></g><g><path d="m341.565 63.233c-56.862 70.1-113.207 170.267-38.374 245.367 4.956 4.974 12.569 6.079 18.735 2.719 93.096-50.726 67.553-162.779 32.967-246.152-2.279-5.49-9.584-6.55-13.328-1.934z" fill="#fd9898"/></g><g><path d="m343.521 109.801s7.224 73.306-37.457 152.104c0 0 5.212-80.707 37.457-152.104z" fill="#ef7280"/></g><g><path d="m247.146 40.978c-60.753 101.958-115.155 242.946-3.592 326.538 7.388 5.536 17.504 5.536 24.892 0 111.562-83.592 57.161-224.579-3.592-326.538-4.001-6.714-13.707-6.714-17.708 0z" fill="#e56376"/></g><g><path d="m455.095 243.588c-101.147 25.614-223.327 80.435-195.935 206.565 126.131 27.392 180.951-94.788 206.565-195.935 1.625-6.417-4.214-12.255-10.63-10.63z" fill="#fd9898"/></g><g><path d="m431.807 295.131s-32.249 128.974-145.807 139.868c0 0 92.571-53.694 145.807-139.868z" fill="#ef7280"/></g><g><path d="m374.312 150.814c-89.71 66.894-187.97 170.078-120.95 283.148 4.438 7.488 13.25 11.138 21.683 8.982 127.343-32.562 130.825-175.005 114.691-285.741-1.062-7.292-9.517-10.794-15.424-6.389z" fill="#ef7280"/></g><g><path d="m56.905 243.588c101.147 25.614 223.327 80.435 195.935 206.565-126.13 27.392-180.951-94.788-206.565-195.935-1.625-6.417 4.214-12.255 10.63-10.63z" fill="#fd9898"/></g><g><path d="m80.193 295.131s32.249 128.974 145.807 139.868c0 0-92.571-53.694-145.807-139.868z" fill="#ef7280"/></g><g><path d="m137.688 150.814c89.71 66.894 187.97 170.078 120.95 283.148-4.438 7.488-13.25 11.138-21.684 8.982-127.342-32.563-130.824-175.005-114.691-285.741 1.063-7.292 9.518-10.794 15.425-6.389z" fill="#ef7280"/></g><g><path d="m140.064 193.977s-2.233 93.177 18.415 143.313 70.522 90.646 70.522 90.646-70.554-98.812-88.937-233.959z" fill="#e56376"/></g><g><path d="m371.936 193.977s2.233 93.177-18.415 143.313c-20.649 50.135-70.522 90.646-70.522 90.646s70.554-98.812 88.937-233.959z" fill="#e56376"/></g><g><path d="m247.146 123.368c-60.753 101.958-115.155 242.946-3.592 326.538 7.388 5.536 17.504 5.536 24.892 0 111.562-83.592 57.161-224.579-3.592-326.538-4.001-6.714-13.707-6.714-17.708 0z" fill="#fd9898"/></g><g><path d="m248.064 174.345s-16.831 77.555-16.831 140.722 20.833 124.933 20.833 124.933-46.13-71.675-46.13-124.933 42.128-140.722 42.128-140.722z" fill="#ef7280"/></g><g><path d="m263.936 174.345s16.831 77.555 16.831 140.722-20.833 124.933-20.833 124.933 46.13-71.675 46.13-124.933-42.128-140.722-42.128-140.722z" fill="#ef7280"/></g></g></g></svg>