<svg id="Capa_1" enable-background="new 0 0 512 512" height="512" viewBox="0 0 512 512" width="512" xmlns="http://www.w3.org/2000/svg"><g><path d="m512 256c0 141.385-114.615 256-256 256-39.648 0-77.192-9.013-110.692-25.103-1.156-.555 1.52-13.878.373-14.45-27.354-13.649-51.921-32.05-72.621-54.122-1.709-1.822-7.217 9.091-8.873 7.22-39.942-45.155-64.187-104.519-64.187-169.545 0-141.385 114.615-256 256-256s256 114.615 256 256z" fill="#6a61b4"/><path d="m308.926 244.203 60 27.289v118.253h-.002v96.067c-17.728 8.728-36.612 15.464-56.362 19.918l-18.31-115.985h-153.781v90.074c0 2.155-2.297 3.524-4.201 2.515-8.961-4.75-17.606-10.017-25.895-15.76-1.178-.816.214-5.036-.95-5.871-4.554-3.27-8.996-6.685-13.32-10.239-.491-.404-3.543 2.585-4.031 2.177-9.966-8.317-19.29-17.377-27.887-27.096l7.27-346.97c13.179-13.705 27.87-25.944 43.805-36.451l23.663 202.08h170.001z" fill="#5f55af"/><path d="m348.925 330 19.999-118.253v300.253z" fill="#f77026"/><path d="m256 330h-117.074v-145.542h170z" fill="#f29500"/><path d="m308.926 184.458 60 27.289v118.253h-120z" fill="#ffa90b"/><path d="m220.438 288.31-15.268 41.69h-25.617v-145.542h8.737z" fill="#f77026"/><path d="m368.926 512v-300.253l84.148 118.253z" fill="#ffb52d"/><path d="m110.693 45.207c4.727-3.265 9.569-6.375 14.519-9.322l43.714 304.115-58.55 126.573c-6.312-4.374-12.418-9.023-18.301-13.933z" fill="#f29500"/><path d="m119.289 39.521c5.322-3.368 10.776-6.545 16.354-9.521h24.097l48.057 260-62.49 196.897c-3.068-1.474-6.103-3.007-9.102-4.598z" fill="#ffb52d"/><path d="m163.437 50h-104.511v-20l57.894-30 42.921 30z" fill="#ffc14f"/><path d="m58.926 50v-20l57.894-30z" fill="#ffb52d"/><path d="m368.926 211.747v118.253h-20.001z" fill="#f29500"/></g></svg>