<svg id="Capa_1" enable-background="new 0 0 512 512" height="512" viewBox="0 0 512 512" width="512" xmlns="http://www.w3.org/2000/svg"><g><path d="m256 0c141.385 0 256 114.615 256 256s-114.615 256-256 256-256-114.615-256-256 114.615-256 256-256z" fill="#c43f9a"/><path d="m256 512c-141.385 0-256-114.615-256-256 0-72.509 30.146-137.977 78.587-184.556l42.883 80.246-6.239 53.163 302.083 188.362 94.684-136.381c-.448 141-114.891 255.166-255.998 255.166z" fill="#ac3586"/><path d="m171.223 186.894v220h-80z" fill="#4e5a61"/><path d="m114.33 286.148-75.894-47.148 75.894-179.668 70 100.668z" fill="#4e5a61"/><path d="m22.33 100 92-40.668v46.759c0 18.728-15.182 33.91-33.91 33.91h-58.09z" fill="#7e8b96"/><path d="m114.33 60v80h-34.075z" fill="#5f6c75"/><path d="m22.33 100 20.911-9.244-20.911 49.244z" fill="#5f6c75"/><path d="m63.436 241.121-9.106-1.121 60-180.668 70 100.668c-14.547 53.321-66.039 87.872-120.894 81.121z" fill="#a2abb8"/><path d="m184.33 256-130-16 130-80z" fill="#7e8b96"/><path d="m54.33 240 130-40v114.915h-32.598z" fill="#909ba6"/><path d="m116.252 287.626 68.078-87.626v114.915h-32.598z" fill="#7e8b96"/><path d="m264.33 420 21.596 60-181.596-60 106.032-22.191z" fill="#a2abb8"/><path d="m184.33 200v220h-80z" fill="#909ba6"/><path d="m264.33 420h-80v-220z" fill="#7e8b96"/><path d="m486.273 204.021c1.876 0 3.397 1.521 3.397 3.397v136.603h-80l73.605-138.2c.59-1.108 1.743-1.8 2.998-1.8z" fill="#7e8b96"/><path d="m422.505 319.922 12.835-24.099 54.33 48.198z" fill="#5f6c75"/><path d="m184.33 200 305.34 144.021-105.34 75.979h-120z" fill="#a2abb8"/><path d="m184.33 200 305.34 144.021-105.34 75.979z" fill="#b9c3cd"/></g></svg>