<svg id="Capa_1" enable-background="new 0 0 512 512" height="512" viewBox="0 0 512 512" width="512" xmlns="http://www.w3.org/2000/svg"><g><path d="m512 256c0 141.385-114.615 256-256 256s-256-114.615-256-256 114.615-256 256-256 256 114.615 256 256z" fill="#8cc5db"/><path d="m511.909 249.112-224.916 200.888-16.531-12.19-48.993 71.881c-18.885-2.546-37.117-7.152-54.462-13.583l-133.347-195.642c-2.717-3.987-3.319-9.048-1.612-13.561l20.899-186.828c2.596-3.376 5.275-6.686 8.033-9.925l137.887 194.35 152.234-36.146 14.584 38.549c.863 2.281 1.136 4.702.844 7.054l143.683-68.383c.916 7.745 1.487 15.596 1.697 23.536z" fill="#65b1cf"/><path d="m130 236 121.91-173.323c1.991-2.831 6.188-2.831 8.179 0l109.048 207.323h-226.274z" fill="#3342ae"/><path d="m256 270v-209.446c1.547 0 3.094.708 4.09 2.124l121.91 173.322-12.863 34z" fill="#3d4ec6"/><path d="m359.213 327.137h-206.809l-22.404-86.262 126-60.875 126 60.875z" fill="#2b3894"/><path d="m510.786 141.159-172.45 223.758-92.686-44.8 257.108-187.208c1.294-.942 2.919-1.31 4.492-1.015 4.268.799 6.187 5.825 3.536 9.265z" fill="#3342ae"/><path d="m67.298 80h-67.298l20.234-20 40.256 8.553z" fill="#5766ce"/><path d="m0 80 40-20 15 32h-55z" fill="#3342ae"/><path d="m40 60 27.298 10 162.702 223.137-97.283 26.819z" fill="#3d4ec6"/><path d="m142.863 293.137 113.137-113.137 113.137 113.137-113.137 46.863z" fill="#5766ce"/><path d="m256 180 113.137 113.137-113.137 46.863z" fill="#717ed6"/><path d="m260.132 505.938c-1.985 2.912-6.278 2.912-8.263 0l-118.647-174.074c-2.019-2.963-2.467-6.725-1.198-10.078l10.838-28.649 113.138 26.863c44.529-10.573 80.988 35.898 60.123 76.632z" fill="#3d4ec6"/><path d="m256 508.122v-188.122l113.137-26.863 10.838 28.649c1.269 3.354.822 7.115-1.198 10.078l-118.645 174.074c-.993 1.456-2.562 2.184-4.132 2.184z" fill="#5766ce"/></g></svg>