<svg id="Capa_1" enable-background="new 0 0 512 512" height="512" viewBox="0 0 512 512" width="512" xmlns="http://www.w3.org/2000/svg"><g><path d="m512 256c0 141.385-114.615 256-256 256s-256-114.615-256-256 114.615-256 256-256 256 114.615 256 256z" fill="#ffc14f"/><path d="m512 134.295-100.023 237.404-81.977 17.438-74.522 75.131-73.478-75.131-81.977-17.438-100.023-237.404 100.023 67.707 41.977 37.135 71.155-1.237h85.69l71.155 1.237 41.977-37.135z" fill="#ffb52d"/><path d="m411.977 124.867 20.343 32.175-20.343 137.522-81.977 17.438-70 52.915 38.845-204.152 71.155 1.237z" fill="#3342ae"/><path d="m330 312.002-70 52.915 38.845-204.152z" fill="#3d4ec6"/><path d="m411.977 294.564v-169.697l100.023 9.428z" fill="#3d4ec6"/><path d="m298.845 160.765 71.155 1.237 41.977 132.562z" fill="#2b3894"/><path d="m213.155 160.765 38.845 204.152-70-52.915-81.977-17.438z" fill="#3d4ec6"/><path d="m213.155 160.765 38.845 204.152-70-52.915z" fill="#3342ae"/><path d="m213.155 160.765-113.132 133.799-10.172-146.287 10.172-23.409 41.977 37.134z" fill="#3342ae"/><path d="m0 134.295 100.023-9.428v169.697z" fill="#3d4ec6"/><path d="m100.023 294.564 41.977-132.562 71.155-1.237z" fill="#2b3894"/><path d="m307.478 195.04-15.75.29 7.117-34.564zm-104 0 16.794.29-7.117-34.564z" fill="#232e7a"/><path d="m203.478 195.04 6.392.233c32.364-.169 57.988 27.311 55.56 59.584l-9.952 132.276z" fill="#3d4ec6"/><path d="m255.478 387.133v-192.174l52 .081z" fill="#5766ce"/><path d="m261.499 202.752-6.021 19.25-20.666.032-31.334-26.994 52.293-.07c4.047-.005 6.936 3.919 5.728 7.782z" fill="#5766ce"/><path d="m276.145 222.034-20.666-.032v-27.043l52 .081z" fill="#717ed6"/><path d="m255.478 202.002 3.596 15.907c.474 2.096-1.122 4.09-3.271 4.087l-20.992-.03z" fill="#717ed6"/><path d="m276.145 221.966-20.666.036v-20z" fill="#8c96dd"/></g></svg>