<svg id="Capa_1" enable-background="new 0 0 512 512" height="512" viewBox="0 0 512 512" width="512" xmlns="http://www.w3.org/2000/svg"><g><path d="m512 256c0 141.385-114.615 256-256 256s-256-114.615-256-256 114.615-256 256-256 256 114.615 256 256z" fill="#c43f9a"/><path d="m422.784 450.22c-44.801 38.507-103.074 61.78-166.784 61.78-96.456 0-180.452-53.345-224.096-132.142l22.712-118.011h-54.55c-.044-1.944-.066-3.893-.066-5.847 0-18.698 2.005-36.927 5.811-54.485l68.441-68.44v-57.362c13.984-14.097 29.598-26.577 46.534-37.131l26.311 35.082v132.256l55.928 55.928 145.972 147.59v26.024z" fill="#922d72"/><path d="m330 430h-240l42.34-220 77.428 28.46 120.232 105.188z" fill="#7e8b96"/><path d="m142.34 235v195h-19.553z" fill="#5f6c75"/><path d="m474.894 402.616-104.894 53.746-40-86.362 144.375 28.875c1.857.371 2.205 2.877.519 3.741z" fill="#7e8b96"/><path d="m474.894 402.616-86.831 23.278-18.063-47.894 104.375 20.875c1.857.371 2.205 2.877.519 3.741z" fill="#909ba6"/><path d="m370 456.362h-227.66v-276.362l107.428 55 117.342 118.643c1.852 1.872 2.89 4.399 2.89 7.032z" fill="#b9c3cd"/><path d="m142.34 456.362v-276.362l107.428 55z" fill="#a2abb8"/><path d="m194.567 217.93-58.651-12.652 43.143-199.993c.392-1.815 2.83-2.163 3.714-.53l41.316 76.324z" fill="#7e8b96"/><path d="m203.702 190h-60v-184c0-1.922 2.447-2.738 3.6-1.2l56.4 75.2z" fill="#b9c3cd"/><path d="m203.702 190h-60v-110z" fill="#a2abb8"/><path d="m249.768 235h-178.934l-13.771-13.771c-1.562-1.562-1.562-4.095 0-5.657l86.639-86.638z" fill="#c8d2dc"/><path d="m70.834 235-13.771-13.771c-1.562-1.562-1.562-4.095 0-5.657l86.639-86.638z" fill="#b9c3cd"/></g></svg>