<svg id="Capa_1" enable-background="new 0 0 512 512" height="512" viewBox="0 0 512 512" width="512" xmlns="http://www.w3.org/2000/svg"><g><path d="m512 256c0 141.385-114.615 256-256 256s-256-114.615-256-256 114.615-256 256-256 256 114.615 256 256z" fill="#3342ae"/><path d="m177.156 378.96-145.748-.001c-10.676-19.458-18.896-40.454-24.245-62.571l22.388-29.85 173.291-80.869 288.818 127.08-91.897 46.211z" fill="#2b3894"/><path d="m269.389 134.886-9.389 75.114h-40v-40l46.155-36.924c1.402-1.122 3.457.028 3.234 1.81z" fill="#3e9dc3"/><path d="m499.41 197.286-29.41 82.714h-70l96.202-84.884c1.548-1.366 3.899.224 3.208 2.17z" fill="#3993b7"/><path d="m505.98 365.895-125.98-85.895h90l38.919 83.397c.859 1.843-1.259 3.644-2.939 2.498z" fill="#3e9dc3"/><path d="m86 315.766h-82c-2.209 0-4-1.791-4-4v-9.294c0-1.515.856-2.9 2.211-3.578l36.944-18.472c.555-.278 1.168-.422 1.789-.422h45.056c2.209 0 4 1.791 4 4v27.766c0 2.209-1.791 4-4 4z" fill="#58aacb"/><path d="m390.455 320h-192.689l22.234-150 250 110z" fill="#65b1cf"/><path d="m317 320h-273c-2.209 0-4-1.791-4-4v-36l28.648-38.197c.888-1.184 2.053-2.13 3.394-2.756l147.958-69.047z" fill="#7fbed7"/><path d="m220 170-33.979 150h-63.021z" fill="#58aacb"/><path d="m220 170v204.787c0 1.779-2.148 2.672-3.41 1.418l-65.565-65.186c-.612-.608-.765-1.541-.379-2.313z" fill="#a6d2e3"/></g></svg>