<svg id="Capa_1" enable-background="new 0 0 512 512" height="512" viewBox="0 0 512 512" width="512" xmlns="http://www.w3.org/2000/svg"><g><path d="m512 256c0 141.385-114.615 256-256 256s-256-114.615-256-256 114.615-256 256-256 256 114.615 256 256z" fill="#b9e746"/><path d="m505.358 197.814-98.753 119.097-25.18 3.196 1.021 38.809-110.843 152.616c-.134.008-.268.016-.402.024l-29.171-116.726h-3.923l-21.379 114.176c-.98-.151-1.958-.307-2.935-.469l-75.918-103.357-13.418-88.269h-43.467l-78.744-94.967c3.655-27.5 11.676-53.62 23.343-77.642l55.401-3.93 117.693 37.345.074.228 45.042-27.765 45.042 27.765.074-.228 117.692-37.345 80.668 5.723c7.786 16.358 13.889 33.672 18.083 51.719z" fill="#9bcf1b"/><path d="m154.52 270.857 49.906-24.538 49.906 24.538-21.684 165.891-66.718-90.833zm202.96 0-52.394-19.177-47.417 19.177 21.684 165.891 66.718-90.833z" fill="#d3540d"/><path d="m256 270.857h-138.441l-13.58-135.262 13.58-14.855 100.141 31.95 38.3-23.61 22.528 27.192 15.836-3.543 130.636-12.357-30.559 130.486h-138.441z" fill="#f95f00"/><path d="m0 129.081 117.559-8.34v150.117z" fill="#d3540d"/><path d="m217.7 152.69 38.3 118.167h-138.441zm176.741 118.167v-150.116l-100.078 31.988z" fill="#f77026"/><path d="m159.368 302.745-4.847-31.887h99.812zm193.264 0 4.847-31.887h-99.812z" fill="#bc4e11"/><path d="m512 129.081-117.559 141.776v-150.116zm-256 141.776 38.363-118.128-38.363-23.648z" fill="#ff883e"/></g></svg>