<svg id="Capa_1" enable-background="new 0 0 512 512" height="512" viewBox="0 0 512 512" width="512" xmlns="http://www.w3.org/2000/svg"><g><path d="m512 256c0 141.385-114.615 256-256 256s-256-114.615-256-256 114.615-256 256-256 256 114.615 256 256z" fill="#3342ae"/><path d="m468.486 291.182h-117.929v130l-90.791 90.791c-1.253.018-2.508.027-3.766.027-12.026 0-23.858-.83-35.443-2.434v-88.384h-129.478l-74.587-74.587c-7.171-18.949-12.159-38.971-14.654-59.76l89.241-13.485v-112.168l121.465-121.465c3.15-3.15 8.536-.919 8.536 3.536v117.929h129.478l121.464 121.464c3.149 3.15.919 8.536-3.536 8.536z" fill="#2b3894"/><path d="m251.048 1.474c3.15-3.15 8.536-.919 8.536 3.536v122.053c0 5.594-4.866 9.943-10.425 9.318l-119.575-13.442z" fill="#ff50b5"/><path d="m141.573 233.295v29.534l-130-9.891z" fill="#ff50b5"/><path d="m142.021 252.939-12.438 130-121.464-121.464c-3.15-3.15-.919-8.536 3.536-8.536z" fill="#d12898"/><path d="m268.075 382.939h-138.492v-138.492h138.492z" fill="#ff2ea6"/><path d="m259.583 252.939-.522.522v129.478h-38.243l38.025-129.26-129.26 129.26v-130z" fill="#bc157d"/><path d="m129.583 252.939v-130h130v130z" fill="#d12898"/><path d="m129.583 122.939h121.544l8.456 130z" fill="#ff2ea6"/><path d="m506.99 252.939h-247.929l-6.742-130h136.742l121.464 121.464c3.15 3.15.92 8.536-3.535 8.536z" fill="#ff50b5"/><path d="m389.061 122.939v130h-130z" fill="#ff72c3"/><path d="m389.061 289.819v93.12l-88.976-41.024-41.024-88.976 103.089 7.843c15.182 1.155 26.911 13.811 26.911 29.037z" fill="#ff50b5"/><path d="m267.597 504.403c-3.15 3.15-8.536.919-8.536-3.536v-120.79c0-10.715 9.696-18.82 20.241-16.919l109.759 19.781z" fill="#d12898"/><path d="m259.061 382.939v-130l130 130zm130-130h-130l130 38.243z" fill="#ff2ea6"/><path d="m259.583 122.939v130l-19.644-130 4.933-5.386z" fill="#ff72c3"/><path d="m259.583 5.01v117.929h-19.643l11.108-121.464c3.15-3.15 8.535-.92 8.535 3.535z" fill="#ff94d2"/></g></svg>