<svg id="Capa_1" enable-background="new 0 0 512 512" height="512" viewBox="0 0 512 512" width="512" xmlns="http://www.w3.org/2000/svg"><g><path d="m512 256c0 141.385-114.615 256-256 256s-256-114.615-256-256 114.615-256 256-256 256 114.615 256 256z" fill="#3342ae"/><path d="m464.952 139.144v237.558l-211.018 135.298-211.018-135.298v-237.558z" fill="#2b3894"/><path d="m459.89 372.138-121.954 45.757-84.001 37.629-91.68-40.914-114.276-42.472v-211.308h411.911z" fill="#3993b7"/><path d="m459.89 372.138-121.954 45.757-84.001 37.629 1.551-294.695h204.404z" fill="#58aacb"/><path d="m464.952 67.144v305.712l-211.018 67.144-211.018-67.144v-305.712z" fill="#65b1cf"/><path d="m359.443 254.175-103.471 182.236v2.94l-2.038.649-211.018-67.144v-305.712h213.056v67.144l103.471 118.681-103.471-75.348v199.963z" fill="#58aacb"/><path d="m148.569 253.827-105.653-186.683 213.056 67.144z" fill="#65b1cf"/><path d="m53.11 376.1-10.194-3.244v-305.712l107.218 189.447c37.024 65.419-25.393 142.301-97.024 119.509z" fill="#3993b7"/><path d="m148.569 253.827 105.365 186.173-211.018-67.144z" fill="#3e9dc3"/><path d="m255.972 134.288c-30.051-25.916-66.668-43.04-105.823-49.487l-107.233-17.657 211.018-67.144 211.018 67.144z" fill="#a6d2e3"/><path d="m254.953 67.144-1.019-67.144 211.018 67.144z" fill="#c0dfeb"/><path d="m255.972 134.288-213.056-67.144h212.037z" fill="#7fbed7"/><path d="m359.443 254.175 105.509 118.681-211.018 67.144zm105.509-187.031-208.98 67.144 103.471 118.681z" fill="#8cc5db"/><path d="m359.443 254.175-57.211 170.457-48.298 15.368zm-66.28-131.836-37.191 11.949 103.471 118.681z" fill="#7fbed7"/></g></svg>