<svg id="Layer_1" enable-background="new 0 0 512 512" height="512" viewBox="0 0 512 512" width="512" xmlns="http://www.w3.org/2000/svg"><g><circle cx="256" cy="256" fill="#ff4d4f" r="256"/><path d="m256 512v-512c141.159 0 256 114.841 256 256s-114.841 256-256 256z" fill="#d2303a"/><path d="m133.11 218.588c-31.767-30.804-33.604-84.342-.222-117.757 5.821-5.865 15.357-5.932 21.251-.037l48.2 48.2c5.859 5.859 5.852 15.361 0 21.213l-48.2 48.2c-5.767 5.767-15.124 5.886-21.029.181z" fill="#fff068"/><path d="m378.89 218.588c31.767-30.804 33.604-84.342.222-117.757-5.821-5.865-15.357-5.932-21.251-.037l-48.2 48.2c-5.859 5.859-5.852 15.361 0 21.213l48.2 48.2c5.767 5.767 15.124 5.886 21.029.181z" fill="#ffdf00"/><path d="m295.443 431.667h-78.887c-9.695 0-35.364-2.559-50.455-32.721-21.24-2.616-40.883-13.835-53.847-31.118l-4.827-6.436c-3.066-4.094-3.835-9.469-2.039-14.259l23.145-61.72v-77.613c0-3.979 1.581-7.793 4.394-10.606l48.2-48.2c2.813-2.813 6.628-4.394 10.606-4.394h128.533c3.979 0 7.794 1.581 10.606 4.394l48.2 48.2c2.813 2.813 4.394 6.628 4.394 10.606v77.613l23.145 61.72c1.799 4.796 1.025 10.178-2.051 14.274l-4.823 6.427c-12.956 17.281-32.598 28.5-53.839 31.112-15.092 30.164-40.762 32.721-50.455 32.721z" fill="#ffdf00"/><path d="m383.467 285.413v-77.613c0-3.979-1.58-7.793-4.394-10.606l-48.2-48.2c-2.813-2.813-6.628-4.394-10.606-4.394h-64.267v287.066h39.443c9.693 0 35.363-2.556 50.455-32.72 21.241-2.613 40.883-13.832 53.839-31.112l4.823-6.427c3.076-4.096 3.85-9.478 2.051-14.274z" fill="#fc9d05"/><circle clip-rule="evenodd" cx="207.8" cy="272.067" fill="#4e1d06" fill-rule="evenodd" r="15"/><circle clip-rule="evenodd" cx="304.2" cy="272.067" fill="#2a0f00" fill-rule="evenodd" r="15"/><path d="m175.667 335.267h-44.183c-8.284 0-15-6.716-15-15s6.716-15 15-15h44.183c8.284 0 15 6.716 15 15s-6.716 15-15 15z" fill="#fc9d05"/><path d="m380.517 335.267h-44.184c-8.284 0-15-6.716-15-15s6.716-15 15-15h44.184c8.284 0 15 6.716 15 15s-6.716 15-15 15z" fill="#f60"/><path d="m159.6 254.933h-16.067c-8.284 0-15-6.716-15-15s6.716-15 15-15h16.067c8.284 0 15 6.716 15 15s-6.716 15-15 15z" fill="#fc9d05"/><path d="m368.467 254.933h-16.067c-8.284 0-15-6.716-15-15s6.716-15 15-15h16.066c8.284 0 15 6.716 15 15s-6.715 15-14.999 15z" fill="#f60"/><path d="m213.26 282.673-16.067-16.067c-5.858-5.858-5.858-15.355 0-21.213 5.857-5.858 15.355-5.858 21.213 0l16.067 16.067c5.858 5.858 5.858 15.355 0 21.213-5.858 5.86-15.357 5.857-21.213 0z" fill="#732b0c"/><path d="m277.527 282.674c-5.858-5.858-5.858-15.355 0-21.213l16.066-16.067c5.857-5.858 15.355-5.858 21.213 0s5.858 15.355 0 21.213l-16.066 16.067c-5.858 5.858-15.356 5.856-21.213 0z" fill="#4e1d06"/><path d="m272.066 351.333h-32.133c-8.284 0-15-6.716-15-15s6.716-15 15-15h32.133c8.284 0 15 6.716 15 15s-6.715 15-15 15z" fill="#4e1d06"/><path d="m272.066 321.333h-16.066v30h16.066c8.284 0 15-6.716 15-15s-6.715-15-15-15z" fill="#2a0f00"/></g></svg>