<?xml version="1.0" encoding="utf-8"?>
<!-- Generator: Adobe Illustrator 18.1.0, SVG Export Plug-In . SVG Version: 6.00 Build 0)  -->
<svg version="1.0" id="Layer_1" xmlns="http://www.w3.org/2000/svg" xmlns:xlink="http://www.w3.org/1999/xlink" x="0px" y="0px"
	 viewBox="0 0 150 150" enable-background="new 0 0 150 150" xml:space="preserve">
<g>
	<polygon fill="#0099DA" points="45.2,65.3 45.2,95.5 77.4,111.8 77.7,111.7 77.7,82 	"/>
	<polygon fill="#0099DA" points="77.7,111.7 109.5,95.5 77.7,111.7 	"/>
	<polygon fill="#08C792" points="77.7,82 77.7,111.7 109.5,95.5 109.5,65.2 78.7,82.5 	"/>
	
	<polygon points="26.4,111.5 73.7,138.8 73.7,117 45.3,100.6 	"/>
	<polygon points="82.1,117 82.1,138.8 129.4,111.5 110.6,100.6 	"/>
	<polygon points="114.7,93.4 133.6,104.2 133.6,51.7 114.7,62.3 	"/>
	<polygon points="22.2,104.2 41.1,93.4 41.1,63.2 22.2,53.5 	"/>
	
	<path fill="#003369" d="M77.2,9.6L18.9,42.5c0,0,0,0,0,0l-3.2,1.8l0,0L15,44.7l1.4,0.7l0,3.5l0,1.5l-0.1,13.2
		c-1.3,0.8-3.1,2.9-3.4,7.6c0,0,1.2,1.2,4.6,1.2h0c0,0,0,0,0,0c3.4,0,4.6-1.1,4.6-1.1c-0.3-5.4-2.6-7.3-3.8-7.9l0.1-11.9l0-3.6
		l0-1.5l1.3,0.7l28,14.4l30.1,15.5l1,0.5l28.4-15.9l28.4-15.9l4.6-2.6L77.2,9.6z"/>
</g>
</svg>
