<?xml version="1.0" standalone="no"?>
<!DOCTYPE svg PUBLIC "-//W3C//DTD SVG 20010904//EN"
 "http://www.w3.org/TR/2001/REC-SVG-20010904/DTD/svg10.dtd">
<svg version="1.0" xmlns="http://www.w3.org/2000/svg"
 width="816.000000pt" height="816.000000pt" viewBox="0 0 816.000000 816.000000"
 preserveAspectRatio="xMidYMid meet">
<metadata>
Created by potrace 1.14, written by Peter Selinger 2001-2017
</metadata>
<g transform="translate(0.000000,816.000000) scale(0.100000,-0.100000)"
fill="#000000" stroke="none">
<path d="M80 5181 l0 -2979 130 -1 c72 0 135 -3 140 -6 6 -4 10 -3 10 2 0 8
162 8 185 -1 7 -2 16 -2 19 1 5 5 118 7 141 3 6 -1 15 -2 20 -1 26 5 257 1
266 -4 5 -4 9 -3 9 2 0 9 232 8 255 -1 11 -4 13 -158 10 -888 -1 -486 -1 -886
2 -890 2 -4 404 393 893 882 490 488 890 886 890 883 0 -2 7 2 14 10 11 11 26
13 55 7 23 -4 41 -5 41 -1 0 7 195 4 223 -3 9 -2 17 -1 17 2 0 8 273 6 303 -2
9 -2 17 -1 17 2 0 8 165 6 185 -2 7 -2 15 -2 18 1 8 7 256 5 268 -2 5 -4 9 -3
9 2 0 8 162 8 185 -1 7 -2 16 -2 19 1 5 5 118 7 141 3 6 -1 15 -2 20 -1 26 5
257 1 266 -4 5 -4 9 -3 9 2 0 8 162 8 185 -1 7 -2 16 -2 19 1 5 5 118 7 141 3
6 -1 15 -2 20 -1 26 5 257 1 266 -4 5 -4 9 -3 9 2 0 8 162 8 185 -1 7 -2 16
-2 19 1 5 5 118 7 141 3 6 -1 15 -2 20 -1 26 5 257 1 266 -4 5 -4 9 -3 9 2 0
8 162 8 185 -1 7 -2 15 -2 18 1 8 7 256 5 268 -2 5 -4 9 -3 9 2 0 8 270 7 303
-1 9 -2 17 -1 17 2 0 6 182 7 200 1 3 -1 16 0 30 1 14 1 36 3 50 4 l25 1 2
2978 1 2977 -3574 0 -3574 0 0 -2979z m4145 1839 c-3 -5 -12 -10 -18 -10 -7 0
-6 4 3 10 19 12 23 12 15 0z m1240 -1700 c3 -5 1 -10 -4 -10 -6 0 -11 5 -11
10 0 6 2 10 4 10 3 0 8 -4 11 -10z"/>
<path d="M7655 4766 l1 -2974 -21 -4 c-11 -2 -374 -3 -807 -2 l-787 0 0 -155
c0 -86 0 -247 -1 -358 -1 -112 1 -206 4 -211 2 -4 1 -14 -3 -21 -5 -8 -129
109 -387 366 l-380 379 -1027 -1 c-835 0 -1029 -2 -1036 -13 -4 -7 -91 -97
-192 -200 -102 -103 -188 -192 -191 -197 -5 -8 340 -11 1125 -10 l1131 0 26
-23 c14 -13 323 -320 687 -682 364 -362 663 -653 665 -647 2 7 3 312 3 679 -1
593 1 667 15 670 8 2 372 3 808 3 l792 -1 0 2978 0 2978 -210 210 c-116 116
-211 210 -213 210 -1 0 -2 -1338 -2 -2974z"/>
</g>
</svg>
